HIERARCHY
ROOT Hips
{
	OFFSET 0.00000 0.00000 0.00000
	CHANNELS 6 Xposition Yposition Zposition Yrotation Zrotation Xrotation 
	JOINT Lumbar
	{
		OFFSET 0 0 0
		CHANNELS 3 Zrotation Xrotation Yrotation
		JOINT Neck
		{
			OFFSET 0.00 0.2701 0.00
			CHANNELS 3 Zrotation Xrotation Yrotation
			End Site
			{
				OFFSET 0.00 0.1379 0.00
			}
		}
		JOINT RightShoulder
		{
			OFFSET 0.0119 0.2289 0.1181
			CHANNELS 3 Zrotation Xrotation Yrotation
			JOINT RightElbow
			{
				OFFSET 0.00 -0.1475 0.00
				CHANNELS 2 Zrotation Yrotation
				JOINT RightWrist
				{
					OFFSET 0.00 -0.1605 0.00
					CHANNELS 2 Zrotation Xrotation
					End Site
					{
						OFFSET 0.0040 -0.1068 0.0006
					}
				}
			}
		}
		JOINT LeftShoulder
		{
			OFFSET 0.0119 0.2289 -0.1181
			CHANNELS 3 Zrotation Xrotation Yrotation
			JOINT LeftElbow
			{
				OFFSET 0.00 -0.1475 0.00
				CHANNELS 2 Zrotation Yrotation
				JOINT LeftWrist
				{
					OFFSET 0.00 -0.1605 0.00
					CHANNELS 2 Zrotation Xrotation
					End Site
					{
						OFFSET 0.0040 -0.1068 -0.0006
					}
				}
			}
		}
	}
	JOINT RightHip
	{
		OFFSET 0.0316 -0.0424 0.0458
		CHANNELS 3 Zrotation Xrotation Yrotation
		JOINT RightKnee
		{
			OFFSET 0.00 -0.2438 0.00
			CHANNELS 1 Zrotation
			JOINT RightAnkle
			{
				OFFSET 0.00 -0.2449 0.00
				CHANNELS 3 Zrotation Xrotation Yrotation
				End Site
				{
					OFFSET 0.1237 -0.0542 0.0051
				}
			}
		}
	}
	JOINT LeftHip
	{
		OFFSET 0.0316 -0.0424 -0.0458
		CHANNELS 3 Zrotation Xrotation Yrotation
		JOINT LeftKnee
		{
			OFFSET 0.00 -0.2438 0.00
			CHANNELS 1 Zrotation
			JOINT LeftAnkle
			{
				OFFSET 0.00 -0.2449 0.00
				CHANNELS 3 Zrotation Xrotation Yrotation
				End Site
				{
					OFFSET 0.1237 -0.0542 -0.0051
				}
			}
		}
	}
}
MOTION
Frames: 25
Frame Time: 0.02
-0.00093 -0.00023 -0.00203 8.71271 -21.47759 -4.40084 44.25667 2.10511 -5.41223 -9.52177 -3.58125 -0.92083 -23.16519 -7.48972 -13.94985 32.07322 119.66146 12.74147 7.49454 -24.69753 12.88354 -0.9972 43.53567 -93.46875 14.78635 0.3933 36.48229 -2.39333 -6.17087 -20.8668 -8.31992 -3.51751 -4.04406 38.31803 8.40221 1.70452 -26.86155 -8.74589 3.8551 4.24304
1e-05 -0.00017 -0.00125 8.63838 -21.54704 -4.35394 44.32081 2.10694 -5.5253 -9.44655 -3.59484 -0.92249 -22.98547 -7.75736 -13.08675 32.48146 116.50045 12.19064 6.68654 -24.43746 12.88869 -1.1241 43.52387 -93.44697 14.69957 0.38196 36.48046 -2.40012 -6.5981 -20.88679 -8.28098 -3.48855 -4.024 38.27788 8.6257 2.32497 -26.86491 -8.70463 3.8115 4.21386
0.00093 -0.00011 -0.00047 8.56423 -21.61633 -4.30716 44.38477 2.10878 -5.6384 -9.37176 -3.60844 -0.92414 -22.80618 -8.02431 -12.22604 32.88876 113.34905 11.64145 5.88104 -24.17833 12.89391 -1.25075 43.51175 -93.42537 14.61301 0.37061 36.47856 -2.40678 -7.02455 -20.90674 -8.24211 -3.45962 -4.00398 38.23777 8.84853 2.94276 -26.86821 -8.66359 3.76808 4.1848
0.00186 -4e-05 0.00031 8.49012 -21.68558 -4.2604 44.44873 2.11061 -5.7512 -9.2968 -3.62201 -0.9258 -22.62698 -8.29115 -11.36555 33.2958 110.19776 11.09231 5.07553 -23.91907 12.89906 -1.3773 43.49991 -93.40367 14.52649 0.3593 36.47672 -2.41354 -7.45056 -20.92667 -8.20327 -3.43073 -3.98398 38.19773 9.07131 3.56113 -26.87155 -8.62248 3.72462 4.15572
0.00279 2e-05 0.00109 8.41585 -21.75498 -4.21352 44.51286 2.11245 -5.86381 -9.22135 -3.63554 -0.92745 -22.44743 -8.55862 -10.50281 33.70364 107.03693 10.54155 4.2675 -23.65886 12.90409 -1.50403 43.48856 -93.38178 14.43979 0.34799 36.47499 -2.42044 -7.87713 -20.94663 -8.16439 -3.40185 -3.96396 38.15767 9.29478 4.18258 -26.87498 -8.58112 3.68097 4.12649
0.00372 9e-05 0.00187 8.34197 -21.82402 -4.16698 44.57645 2.11429 -5.97791 -9.14794 -3.64927 -0.92911 -22.26873 -8.82448 -9.64644 34.10976 103.90553 9.99568 3.46737 -23.40204 12.90972 -1.63047 43.47484 -93.3608 14.35352 0.33659 36.47274 -2.42659 -8.30329 -20.96655 -8.12553 -3.37282 -3.94394 38.1175 9.51629 4.79275 -26.87801 -8.54073 3.63803 4.0978
0.00465 0.00015 0.00264 8.26739 -21.89369 -4.1198 44.64108 2.11611 -6.08894 -9.07049 -3.66262 -0.93075 -22.0884 -9.09326 -8.77815 34.51893 100.71852 9.44061 2.65229 -23.13856 12.91414 -1.75744 43.46582 -93.33797 14.26646 0.32539 36.47152 -2.43429 -8.72984 -20.98654 -8.08668 -3.3441 -3.92394 38.07758 9.74136 5.42452 -26.88183 -8.49845 3.59372 4.06808
0.00558 0.00022 0.00342 8.19343 -21.96282 -4.07321 44.70473 2.11795 -6.20273 -8.99679 -3.67627 -0.93241 -21.90977 -9.35939 -7.92094 34.92525 97.58249 8.89398 1.8509 -22.88144 12.91969 -1.88375 43.4526 -93.31692 14.18016 0.31398 36.46937 -2.44048 -9.15594 -21.00645 -8.04781 -3.31511 -3.90392 38.03743 9.96339 6.03715 -26.88491 -8.45787 3.55063 4.03927
0.00651 0.00029 0.00422 8.12029 -22.03118 -4.02735 44.76726 2.11981 -6.32028 -8.92757 -3.69051 -0.93409 -21.73235 -9.62224 -7.07649 35.32845 94.50864 8.35761 1.06629 -22.63115 12.92658 -2.01001 43.43365 -93.29773 14.0946 0.30238 36.46599 -2.44511 -9.58213 -21.0263 -8.00894 -3.28571 -3.88385 37.99697 10.18085 6.62338 -26.88712 -8.41955 3.50921 4.0117
0.00742 0.00034 0.00494 8.04261 -22.10363 -3.97731 44.83648 2.12158 -6.41736 -8.83229 -3.702 -0.93565 -21.54537 -9.90387 -6.15623 35.75069 91.07652 7.76202 0.18521 -22.33874 12.92564 -2.13886 43.44585 -93.26689 14.00421 0.29207 36.46942 -2.45961 -10.00976 -21.04663 -7.97014 -3.25845 -3.864 37.95822 10.42205 7.35249 -26.89444 -8.36879 3.45871 3.97739
0.00838 0.00042 0.00581 7.97438 -22.16765 -3.93608 44.89145 2.1235 -6.55685 -8.79215 -3.71888 -0.93747 -21.38026 -10.14589 -5.39758 36.13203 88.40087 7.29153 -0.49231 -22.13701 12.94127 -2.26073 43.39356 -93.26124 13.92441 0.27895 36.45866 -2.45272 -10.43301 -21.06585 -7.93116 -3.22679 -3.84374 37.9159 10.61479 7.78596 -26.89094 -8.34392 3.42702 3.95706
0.00946 0.0006 0.00708 7.93344 -22.20683 -3.91918 44.90804 2.12606 -6.82 -8.9034 -3.75409 -0.94001 -21.26186 -10.27808 -5.07306 36.40569 87.81654 7.16637 -0.60602 -22.17169 13.00253 -2.37569 43.15211 -93.32336 13.87128 0.25826 36.40726 -2.3912 -10.85549 -21.0829 -7.89188 -3.18195 -3.82197 37.86348 10.65964 7.35126 -26.85777 -8.39378 3.45033 3.97756
0.01058 0.0008 0.00849 7.90174 -22.23791 -3.91107 44.91021 2.12869 -7.12424 -9.06992 -3.79407 -0.9428 -21.168 -10.37064 -4.91277 36.63706 87.98943 7.16654 -0.5162 -22.29972 13.08038 -2.48134 42.84802 -93.41301 13.82968 0.23438 36.34199 -2.30745 -11.27147 -21.09868 -7.85239 -3.1329 -3.79988 37.8076 10.65843 6.62945 -26.81375 -8.46899 3.49195 4.01166
0.01169 0.00099 0.00985 7.8649 -22.27376 -3.89888 44.91848 2.13117 -7.40508 -9.21121 -3.82955 -0.94547 -21.07151 -10.48214 -4.68314 36.88534 87.80503 7.10787 -0.52305 -22.39317 13.15056 -2.58332 42.58076 -93.48844 13.78376 0.21232 36.28412 -2.23122 -11.68309 -21.11445 -7.81286 -3.08648 -3.77822 37.75343 10.68825 6.0772 -26.77465 -8.5301 3.52293 4.03789
0.01279 0.0012 0.01116 7.832 -22.30481 -3.88719 44.92855 2.13427 -7.70647 -9.35342 -3.87484 -0.94816 -20.9387 -10.5899 -4.43057 37.14491 87.67563 7.05697 -0.51226 -22.45376 13.2214 -2.7188 42.27868 -93.56299 13.73207 0.19011 36.22136 -2.16587 -12.12563 -21.13264 -7.77388 -3.037 -3.75534 37.69839 10.67604 5.36266 -26.73548 -8.60195 3.56356 4.07116
0.0139 0.00137 0.0126 7.79312 -22.3442 -3.87638 44.93155 2.13594 -7.97413 -9.50641 -3.90088 -0.95087 -20.88785 -10.69573 -4.26584 37.36893 87.61379 7.02014 -0.48948 -22.60483 13.29471 -2.78207 42.03351 -93.65609 13.69754 0.16567 36.16581 -2.07254 -12.50216 -21.14558 -7.73373 -2.99293 -3.73495 37.64468 10.73958 4.914 -26.69398 -8.65769 3.58866 4.09316
0.01501 0.00145 0.01432 7.73532 -22.40647 -3.86719 44.91777 2.13504 -8.14412 -9.67883 -3.87203 -0.95359 -21.05305 -10.80855 -4.29453 37.52219 87.53182 6.98727 -0.48704 -22.98323 13.37142 -2.65027 41.96742 -93.69974 13.68528 0.15246 36.13085 -1.9079 -12.69886 -21.14338 -7.6903 -2.96442 -3.72139 37.59282 11.03122 5.30495 -26.64795 -8.66073 3.56444 4.07931
0.01612 0.00149 0.01617 7.67131 -22.47783 -3.85835 44.89755 2.13242 -8.27771 -9.85963 -3.82378 -0.9563 -21.30074 -10.92003 -4.40836 37.63792 87.4981 6.9655 -0.47804 -23.44925 13.44991 -2.44576 41.95946 -93.77393 13.69293 0.13487 36.10407 -1.71574 -12.82941 -21.13609 -7.64572 -2.94157 -3.71037 37.54294 11.39916 5.96621 -26.60006 -8.64714 3.52436 4.05394
0.01723 0.00154 0.01797 7.61008 -22.54642 -3.84842 44.88079 2.1297 -8.42427 -10.03436 -3.78475 -0.959 -21.51332 -11.03086 -4.48805 37.7597 87.45268 6.94068 -0.4709 -23.87504 13.52713 -2.27316 41.92068 -93.9017 13.70746 0.10733 36.0754 -1.53587 -12.98939 -21.13179 -7.60174 -2.91643 -3.69828 37.49391 11.72728 6.48164 -26.55356 -8.64239 3.49276 4.03473
0.01832 0.0016 0.01973 7.54891 -22.60896 -3.8426 44.8612 2.13075 -8.58722 -10.22024 -3.74404 -0.96178 -21.7164 -11.14693 -4.55107 37.92666 87.37961 6.90961 -0.46513 -24.30626 13.60687 -2.10491 41.89867 -93.76497 13.65971 0.12663 36.03879 -1.35624 -13.15086 -21.1247 -7.55746 -2.89003 -3.68585 37.43734 12.07593 7.08693 -26.50452 -8.63281 3.45623 4.01199
0.01947 0.00164 0.0216 7.48656 -22.68639 -3.82835 44.84627 2.12346 -8.70703 -10.38456 -3.70233 -0.96438 -21.95893 -11.25063 -4.67086 37.99093 87.37941 6.89533 -0.4529 -24.74522 13.68157 -1.9106 41.85586 -94.16178 13.74053 0.05173 36.02051 -1.16976 -13.29479 -21.12212 -7.51352 -2.86756 -3.6747 37.39705 12.40003 7.56939 -26.4603 -8.6294 3.42622 3.99382
0.02075 0.00158 0.02369 7.41784 -22.80259 -3.78916 44.84464 2.0944 -8.71465 -10.48379 -3.66125 -0.96645 -22.28698 -11.33558 -4.88909 37.78323 87.4395 6.89895 -0.46861 -25.18828 13.7417 -1.66091 41.74623 -96.23678 14.22191 -0.32039 36.05344 -0.97186 -13.39664 -21.1341 -7.47091 -2.85529 -3.66684 37.40066 12.64279 7.68043 -26.43129 -8.64358 3.41563 3.98969
0.02209 0.00148 0.02587 7.34906 -22.93347 -3.74168 44.8481 2.05685 -8.68018 -10.56147 -3.62007 -0.96833 -22.65253 -11.40605 -5.16568 37.47362 87.58561 6.92211 -0.47283 -25.63476 13.79663 -1.3877 41.61335 -98.81089 14.82337 -0.78056 36.104 -0.76799 -13.48513 -21.15061 -7.42867 -2.84666 -3.66012 37.42064 12.85775 7.65471 -26.40691 -8.66501 3.41242 3.99069
0.02342 0.00141 0.02802 7.28315 -23.05784 -3.699 44.85018 2.02266 -8.66616 -10.65095 -3.57978 -0.9703 -23.0027 -11.47281 -5.44188 37.20885 87.7808 6.95401 -0.45184 -26.07662 13.85401 -1.12621 41.4879 -101.01325 15.33569 -1.17468 36.14495 -0.56644 -13.58603 -21.16454 -7.3862 -2.83591 -3.65264 37.43363 13.08201 7.66944 -26.37957 -8.68541 3.40745 3.99025
0.02471 0.00132 0.03014 7.20456 -23.18211 -3.6521 44.84851 1.99057 -8.64564 -10.73204 -3.53522 -0.97223 -23.34806 -11.58077 -5.61912 36.94748 87.63041 6.91668 -0.55076 -26.53496 13.91116 -0.85819 41.37651 -103.81618 15.99123 -1.67666 36.19331 -0.36554 -13.65728 -21.18067 -7.34395 -2.82734 -3.64625 37.44509 13.32194 7.78063 -26.356 -8.696 3.39558 3.98589
